<mxfile host="app.diagrams.net" modified="2023-07-17T00:51:24.962Z" agent="Mozilla/5.0 (Windows NT 10.0; Win64; x64) AppleWebKit/537.36 (KHTML, like Gecko) Chrome/113.0.0.0 Safari/537.36 Edg/113.0.1774.50" version="21.6.2" etag="6jvqjfMVzFHgjwLA5yb7" type="github">
  <diagram name="第 1 页" id="lFVd2nnD3DxGFmdp3W_2">
    <mxGraphModel>
      <root>
        <mxCell id="0" />
        <mxCell id="1" parent="0" />
      </root>
    </mxGraphModel>
  </diagram>
</mxfile>
